Land_normalized_Motion_pl05
version=1
nRows=23
nColumns=43
inDegrees=yes
endheader
time		pelvis_tilt		pelvis_list		pelvis_rotation		pelvis_tx		pelvis_ty		pelvis_tz		hip_flexion_r		hip_adduction_r		hip_rotation_r		knee_angle_r		ankle_angle_r		subtalar_angle_r		mtp_angle_r		hip_flexion_l		hip_adduction_l		hip_rotation_l		knee_angle_l		ankle_angle_l		subtalar_angle_l		mtp_angle_l		lumbar_extension		lumbar_bending		lumbar_rotation		neck_flexion		neck_lateral_bending		neck_rotation		arm_flex_r		arm_add_r		arm_rot_r		elbow_flex_r		pro_sup_r		wrist_flex_r		wrist_dev_r		hand_finger_flex_r		arm_flex_l		arm_add_l		arm_rot_l		elbow_flex_l		pro_sup_l		wrist_flex_l		wrist_dev_l		hand_finger_flex_l		
1.630833		3.212001		0.033481		84.705072		-0.017761		0.457897		0.481521		95.134608		-3.145573		-5.669077		-134.950559		15.826074		0.037094		21.986247		91.385286		-11.526273		3.093015		-135.611002		22.722763		3.862750		36.393262		-64.801160		0.808741		1.876975		11.681203		-4.729760		3.352772		66.975663		-33.134426		22.873760		77.223918		146.967892		0.261537		2.202835		-36.332699		49.828243		-40.555086		2.203219		84.692950		125.469020		-14.892752		-4.638107		27.302475		
1.634141		3.143840		-0.057553		84.568731		-0.017654		0.454213		0.480533		95.752508		-3.174138		-5.592656		-135.507583		15.806246		0.242176		22.173457		91.755122		-11.586702		2.999582		-136.144242		23.009966		3.571526		36.341015		-64.981344		0.579217		1.940662		11.793886		-4.466932		3.187436		68.418172		-32.697837		23.046718		76.954377		147.356362		0.131367		2.288588		-35.865052		52.236727		-40.644580		3.798520		84.501302		125.079402		-14.950279		-4.366129		26.853986		
1.637449		3.141839		-0.251001		84.426412		-0.017601		0.450554		0.479577		96.446272		-3.197200		-5.586171		-136.005089		15.743076		0.430810		22.294404		92.267037		-11.665498		3.011753		-136.650205		23.230949		3.384753		36.304652		-65.097973		0.442713		1.968286		12.076840		-4.448600		3.058027		69.901618		-32.110620		23.238915		76.666134		147.587183		0.164445		2.286477		-35.494596		54.351237		-40.778286		5.001068		84.460273		124.923388		-14.833021		-4.328768		26.610422		
1.640758		3.161003		-0.366128		84.277878		-0.017549		0.447144		0.478579		97.041400		-3.194078		-5.554045		-136.511098		15.708355		0.704248		22.437222		92.704486		-11.771637		3.049649		-137.151369		23.368616		3.235070		36.267809		-65.272182		0.310187		2.069642		12.279610		-4.399799		2.952407		71.357601		-31.647338		23.530697		76.394096		147.832856		0.179615		2.343281		-35.118588		56.535216		-40.842624		6.333699		84.299963		124.710477		-14.614348		-4.360723		26.331065		
1.644066		3.161119		-0.467809		84.132662		-0.017489		0.444041		0.477617		97.581706		-3.205030		-5.486529		-136.956928		15.680482		1.048812		22.632907		93.117657		-11.887587		3.072852		-137.606708		23.428415		3.101839		36.218972		-65.474240		0.152084		2.205845		12.497901		-4.345281		2.777824		72.711327		-31.266046		23.756355		76.210857		148.048745		0.081390		2.479856		-34.646920		58.762494		-40.810659		7.736656		84.095394		124.354049		-14.452381		-4.364504		25.912658		
1.647374		3.242747		-0.627754		84.005872		-0.017532		0.440923		0.476641		98.145666		-3.234983		-5.483917		-137.382574		15.622233		1.394625		22.728618		93.646141		-11.972233		3.209021		-138.079299		23.435962		2.990423		36.203134		-65.619463		0.122604		2.300341		12.749579		-4.518561		2.789370		74.168069		-30.741653		24.132479		75.918472		148.196033		0.193049		2.459435		-34.372602		60.679156		-40.855947		8.749064		84.038809		124.414806		-14.084916		-4.480186		25.821970		
1.650682		3.348699		-0.701999		83.908960		-0.017600		0.438134		0.475663		98.555038		-3.272320		-5.458183		-137.789638		15.652055		1.897227		22.866589		94.099702		-12.028301		3.357471		-138.558682		23.340031		2.837349		36.187668		-65.843158		0.107466		2.465740		12.953604		-4.619549		2.767514		75.571202		-30.357848		24.570217		75.674413		148.344943		0.222412		2.545722		-34.102375		62.676241		-40.818314		9.895647		83.900769		124.418938		-13.704198		-4.553615		25.691116		
1.653990		3.464862		-0.755632		83.836234		-0.017780		0.435563		0.474704		98.886961		-3.348230		-5.419986		-138.161668		15.736981		2.467153		23.025770		94.531327		-12.034405		3.515255		-139.042659		23.192403		2.649998		36.172638		-66.082499		0.119158		2.656531		13.127989		-4.693154		2.729922		76.938267		-30.044664		25.060683		75.458417		148.432310		0.211698		2.690793		-33.838459		64.656415		-40.728167		11.053573		83.737633		124.411688		-13.351425		-4.572612		25.552221		
1.657298		3.577232		-0.858965		83.778628		-0.018024		0.433194		0.473871		99.211816		-3.485521		-5.424231		-138.444250		15.824233		2.975825		23.154657		94.999663		-12.011192		3.667916		-139.499532		23.049377		2.494456		36.160574		-66.281189		0.148850		2.804624		13.261783		-4.802687		2.733260		78.283235		-29.702278		25.556767		75.230438		148.473838		0.240016		2.791703		-33.635269		66.529549		-40.604902		12.051429		83.605770		124.465694		-13.035204		-4.571086		25.481633		
1.660606		3.721884		-0.829883		83.765712		-0.018455		0.431057		0.473016		99.351697		-3.682954		-5.399168		-138.772254		16.079239		3.755020		23.393834		95.356039		-11.861313		3.899069		-139.989894		22.786893		2.298211		36.130532		-66.589724		0.199722		3.070822		13.381899		-4.703094		2.635387		79.628486		-29.622935		26.264101		75.053661		148.240381		0.014423		3.180809		-33.410979		68.536827		-40.384781		13.351350		83.356837		124.324650		-12.866143		-4.405257		25.310251		
1.663914		3.819966		-0.997432		83.708969		-0.018914		0.428634		0.472289		99.735154		-3.853277		-5.404897		-139.044827		16.170288		4.124432		23.475849		95.923763		-11.708925		4.133821		-140.472110		22.660061		2.312892		36.115404		-66.668409		0.263079		3.185601		13.442474		-4.835863		2.732672		80.947821		-29.293926		26.892540		74.758417		148.205821		0.124416		3.143803		-33.285820		70.212771		-40.297572		14.267375		83.231236		124.467491		-12.569939		-4.429885		25.370485		
1.667222		3.877510		-1.121903		83.633702		-0.019354		0.426441		0.471549		100.051730		-4.026532		-5.405938		-139.300996		16.302452		4.405408		23.537350		96.408539		-11.541491		4.372457		-140.934702		22.556322		2.354025		36.104428		-66.767760		0.273176		3.266231		13.563942		-4.867086		2.792359		82.102942		-28.839593		27.269804		74.412484		148.170161		0.197419		3.179086		-33.229212		71.684674		-39.932897		14.800693		83.057878		124.539304		-12.422788		-4.406541		25.394597		
1.670530		4.058860		-1.238058		83.620306		-0.019901		0.424319		0.470967		100.270128		-4.347877		-5.506869		-139.530092		16.583249		5.061972		23.638672		96.924640		-11.281338		4.804130		-141.359040		22.282263		2.617439		36.076842		-66.876739		0.370665		3.478195		13.432171		-4.796045		2.867611		83.456169		-28.815357		28.278709		74.153704		148.019229		0.203467		3.157967		-33.265563		73.509260		-39.903049		16.105717		82.810507		124.620143		-12.132154		-4.436810		25.510645		
1.673838		4.183480		-1.331900		83.544251		-0.020439		0.422396		0.470492		100.472254		-4.597788		-5.592791		-139.708667		16.886040		5.559783		23.700049		97.387258		-11.097855		5.130546		-141.738516		22.116260		2.931782		36.047458		-66.997980		0.389247		3.669682		13.327007		-4.675812		2.844625		84.684507		-28.652836		29.057300		73.837432		147.720553		0.089939		3.243747		-33.408819		75.147974		-39.586993		17.046348		82.466916		124.506929		-12.120818		-4.409198		25.571046		
1.677146		4.220151		-1.452525		83.423265		-0.020871		0.420618		0.469908		100.698684		-4.777869		-5.640395		-139.871431		17.102635		5.784382		23.724067		97.770202		-10.971751		5.346421		-142.045002		22.041367		3.095748		36.032587		-67.078664		0.335127		3.739520		13.290361		-4.631817		2.820932		85.683028		-28.253048		29.450760		73.519185		147.560960		0.060709		3.296758		-33.488130		76.447885		-39.125092		17.467770		82.202734		124.422039		-12.166109		-4.371718		25.586737		
1.680455		4.430629		-1.384259		83.346108		-0.021227		0.419167		0.469337		100.586377		-4.973292		-5.826228		-140.031463		17.579303		6.354547		23.625423		97.988276		-10.858044		5.769622		-142.345999		21.867075		3.505659		36.000448		-67.336160		0.331709		4.042923		12.964769		-4.428006		2.630071		86.898593		-28.324022		30.535505		73.176247		146.948809		-0.390388		3.410084		-34.003345		78.195924		-38.877377		18.867396		81.723861		123.855861		-12.614039		-4.345748		25.651302		
1.683763		4.445738		-1.462714		83.218851		-0.021636		0.417458		0.468658		100.686448		-5.065552		-5.894780		-140.199509		18.046777		6.346445		23.560601		98.271228		-10.800174		5.879588		-142.583857		21.778565		3.549882		35.998493		-67.385249		0.276329		4.047449		12.569289		-4.482043		2.604351		87.908564		-27.996293		31.210335		72.824150		146.883474		-0.266529		3.280271		-34.083271		79.427348		-38.630758		19.514430		81.450517		123.738260		-12.716928		-4.313888		25.733468		
1.687071		4.482190		-1.518654		83.120188		-0.022046		0.416085		0.467940		100.703076		-5.141048		-5.978892		-140.325133		18.414263		6.375444		23.509826		98.455080		-10.748787		5.987640		-142.773820		21.725655		3.565634		36.002352		-67.487866		0.241279		4.059605		12.365126		-4.510796		2.569274		88.756947		-27.574997		31.598267		72.508779		146.848878		-0.237434		3.225868		-34.169615		80.528594		-38.249182		19.919603		81.183776		123.627949		-12.841206		-4.265459		25.751680		
1.690379		4.505653		-1.545767		83.028105		-0.022467		0.414798		0.467183		100.625885		-5.196402		-6.081598		-140.448450		19.002017		6.306242		23.497011		98.589070		-10.710359		6.049011		-142.950571		21.707375		3.553966		36.011397		-67.578079		0.210249		4.052791		12.031187		-4.577999		2.560487		89.628591		-27.184696		32.120224		72.117512		146.906939		-0.123095		3.097069		-34.197784		81.634824		-37.898825		20.422148		80.855573		123.601256		-12.868058		-4.226178		25.752337		
1.693687		4.628286		-1.319229		82.926590		-0.022933		0.414075		0.466306		100.185959		-5.262717		-6.278961		-140.585908		19.677613		6.257132		23.188095		98.386061		-10.703593		6.155646		-143.177486		21.723746		3.521721		36.058354		-67.954316		0.187738		4.155008		11.656857		-4.563006		2.493573		90.635428		-27.030033		32.995546		71.751457		146.789779		-0.326022		2.919690		-34.576925		82.986237		-37.814863		21.609064		80.501806		123.178352		-13.409697		-4.237171		25.662146		
1.696995		4.660928		-1.202965		82.821734		-0.023375		0.413186		0.465352		99.878899		-5.318537		-6.424170		-140.729306		20.376054		6.102180		22.819888		98.293248		-10.685740		6.168715		-143.405631		21.793796		3.512440		36.116154		-68.186270		0.132679		4.178128		11.303283		-4.564511		2.483245		91.491325		-26.847907		33.752072		71.467716		146.598800		-0.458372		2.806442		-34.947382		84.143117		-37.698893		22.616488		80.229004		122.707659		-14.018377		-4.226808		25.614352		
1.700303		4.607402		-1.164364		82.708252		-0.023778		0.412247		0.464456		99.680276		-5.386994		-6.550474		-140.854718		21.042701		5.855684		22.606419		98.238994		-10.631012		6.113214		-143.614386		21.910089		3.467089		36.154536		-68.309811		0.050390		4.079276		10.908439		-4.616716		2.506021		92.248497		-26.551838		34.364606		71.223892		146.622176		-0.306939		2.623302		-35.071521		85.125250		-37.519371		23.268152		79.968671		122.677098		-14.154150		-4.243740		25.694145		
1.703611		4.527231		-1.135459		82.584391		-0.024101		0.411523		0.463618		99.477566		-5.445231		-6.662688		-140.955134		21.653510		5.571006		22.393740		98.166524		-10.596492		6.015908		-143.792700		22.018649		3.425054		36.185543		-68.442498		-0.075357		3.999315		10.646349		-4.622703		2.517573		92.955453		-26.275569		34.873337		70.964790		146.673272		-0.216825		2.466336		-35.217891		86.084419		-37.254527		23.881633		79.706370		122.726173		-14.253284		-4.264136		25.753657		
